# xmcd CD database file
#
# Track frame offsets:
#	150
#	19162
#	34210
#	57362
#	76597
#	96102
#	112115
#	132472
#	154922
#	173720
#	187782
#	219385
#
# Disc length: 4440 seconds
#
# Revision: 0
# Processed by: cddbd v1.5.1PL0 Copyright (c) Steve Scherf et al.
# Submitted via: CDex 1.51
#
DISCID=9911560c
DTITLE=星井　七瀬 - 桜の花
DYEAR=2004
DGENRE=Pop
TTITLE0=太陽のジュース
TTITLE1=Check It! Check It! Train
TTITLE2=恋愛１５シミュレーション
TTITLE3=すみれ
TTITLE4=ファーストステップ
TTITLE5=Open Color
TTITLE6=まんまと術中にはまったわたし
TTITLE7=テレパシー
TTITLE8=My Friend
TTITLE9=桜の花
TTITLE10=ガラスのクツ〜なっちゃん
TTITLE11=(Data track)
EXTD=YEAR: 2004
EXTT0=
EXTT1=
EXTT2=
EXTT3=
EXTT4=
EXTT5=
EXTT6=
EXTT7=
EXTT8=
EXTT9=
EXTT10=
EXTT11=
PLAYORDER=
